<?xml version="1.0" standalone="no"?>
<!DOCTYPE svg PUBLIC "-//W3C//DTD SVG 20010904//EN"
 "http://www.w3.org/TR/2001/REC-SVG-20010904/DTD/svg10.dtd">
<svg version="1.0" xmlns="http://www.w3.org/2000/svg"
 width="1600.000000pt" height="450.000000pt" viewBox="0 0 1600.000000 450.000000"
 preserveAspectRatio="xMidYMid meet">
<metadata>
Created by potrace 1.13, written by Peter Selinger 2001-2015
</metadata>
<g transform="translate(0.000000,450.000000) scale(0.100000,-0.100000)"
fill="#000000" stroke="none">
<path d="M14556 3892 c-21 -59 -44 -120 -52 -137 -7 -16 -254 -685 -548 -1485
-294 -800 -538 -1463 -542 -1473 -6 -16 2 -17 116 -15 l122 3 134 375 c74 206
144 400 155 430 11 30 26 74 34 97 7 24 37 76 66 115 187 255 262 353 269 356
5 2 11 -5 14 -15 11 -36 116 -450 116 -456 0 -28 28 19 110 183 52 104 97 190
100 190 3 0 14 -19 25 -43 51 -107 231 -447 236 -447 4 0 9 15 12 33 4 17 17
93 30 167 65 358 81 440 87 433 7 -8 70 -185 185 -518 34 -99 121 -342 193
-540 l130 -360 122 -3 c114 -2 122 -1 115 15 -3 10 -247 673 -541 1473 -294
800 -541 1469 -548 1485 -7 17 -30 75 -51 130 -21 55 -40 103 -44 107 -3 4
-23 -41 -45 -100z"/>
<path d="M7326 3769 c-278 -41 -540 -199 -696 -421 -138 -196 -170 -401 -170
-1083 0 -672 30 -870 160 -1068 55 -84 159 -191 246 -253 87 -62 236 -130 351
-161 86 -23 118 -26 258 -26 175 -1 242 10 382 61 221 81 400 242 512 462 49
95 95 225 107 300 l7 40 -110 0 -110 0 -11 -51 c-52 -222 -218 -437 -414 -533
-115 -57 -185 -76 -310 -83 -355 -21 -681 189 -782 502 -51 161 -74 603 -57
1100 10 287 24 415 57 520 65 201 234 373 444 451 301 113 646 39 848 -180 93
-101 190 -287 209 -403 l6 -33 115 0 115 0 -7 40 c-10 65 -63 219 -99 290 -98
194 -243 342 -424 433 -171 87 -424 126 -627 96z"/>
<path d="M9926 3770 c-331 -52 -616 -249 -746 -515 -95 -195 -110 -300 -117
-825 -7 -579 10 -849 68 -1038 89 -288 349 -519 687 -609 84 -23 118 -26 252
-26 108 0 176 4 226 16 338 77 607 293 711 569 68 180 83 353 83 965 0 362 -3
499 -15 586 -38 289 -136 485 -320 640 -129 109 -289 186 -460 223 -86 19
-289 26 -369 14z m402 -228 c273 -93 450 -284 502 -542 32 -157 40 -303 40
-751 0 -454 -8 -590 -45 -735 -56 -220 -188 -384 -389 -483 -127 -63 -234 -84
-391 -78 -215 8 -364 69 -514 213 -140 133 -195 249 -228 487 -23 160 -26 973
-5 1162 18 156 51 283 97 376 52 104 189 239 300 296 150 76 224 93 405 89
122 -2 144 -6 228 -34z"/>
<path d="M220 2266 l0 -1486 598 0 c351 0 632 4 682 10 356 44 592 228 680
530 34 115 39 345 11 463 -53 224 -197 400 -398 489 -40 17 -73 34 -73 37 1 3
35 22 78 41 62 28 94 51 163 120 70 70 94 101 127 170 62 129 76 194 76 345 0
104 -5 146 -23 210 -74 263 -266 443 -557 522 l-99 27 -632 4 -633 3 0 -1485z
m1305 1260 c161 -47 288 -142 352 -262 49 -92 67 -172 66 -299 0 -92 -5 -123
-27 -189 -61 -179 -178 -287 -376 -347 -73 -22 -89 -23 -587 -27 l-513 -3 0
576 0 576 513 -4 c451 -3 519 -5 572 -21z m-45 -1340 c320 -58 510 -280 510
-596 0 -307 -182 -529 -483 -591 -83 -17 -140 -19 -579 -19 l-488 0 0 610 0
610 483 0 c361 -1 501 -4 557 -14z"/>
<path d="M3020 2265 l0 -1485 588 0 c634 0 706 5 849 54 217 74 364 199 459
391 70 143 87 221 87 410 0 189 -17 267 -87 410 -95 191 -242 317 -459 391
-139 48 -223 54 -739 54 l-478 0 0 630 0 630 -110 0 -110 0 0 -1485z m1315 1
c230 -67 372 -211 432 -436 23 -90 23 -300 0 -390 -60 -225 -202 -369 -432
-436 -53 -16 -121 -18 -577 -21 l-518 -4 0 656 0 656 518 -4 c456 -3 524 -5
577 -21z"/>
<path d="M5440 2265 l0 -1485 110 0 110 0 0 1485 0 1485 -110 0 -110 0 0
-1485z"/>
<path d="M11480 3650 l0 -100 440 0 440 0 0 -1385 0 -1385 110 0 110 0 0 1385
0 1385 445 0 445 0 0 100 0 100 -995 0 -995 0 0 -100z"/>
</g>
</svg>
