<?xml version="1.0" encoding="utf-8"?>
<!-- Generator: Adobe Illustrator 19.0.1, SVG Export Plug-In . SVG Version: 6.00 Build 0)  -->
<svg version="1.1" id="Слой_1" xmlns="http://www.w3.org/2000/svg" xmlns:xlink="http://www.w3.org/1999/xlink" x="0px" y="0px"
	 viewBox="516 222.8 1556.7 323.5" style="enable-background:new 516 222.8 1556.7 323.5;" xml:space="preserve">
<g transform="translate(0.000000,450.000000) scale(0.100000,-0.100000)">
	<path d="M19496,2172c-21-59-44-120-52-137c-7-16-254-685-548-1485s-538-1463-542-1473c-6-16,2-17,116-15l122,3l134,375
		c74,206,144,400,155,430s26,74,34,97c7,24,37,76,66,115c187,255,262,353,269,356c5,2,11-5,14-15c11-36,116-450,116-456
		c0-28,28,19,110,183c52,104,97,190,100,190s14-19,25-43c51-107,231-447,236-447c4,0,9,15,12,33c4,17,17,93,30,167
		c65,358,81,440,87,433c7-8,70-185,185-518c34-99,121-342,193-540l130-360l122-3c114-2,122-1,115,15c-3,10-247,673-541,1473
		s-541,1469-548,1485c-7,17-30,75-51,130s-40,103-44,107C19538,2276,19518,2231,19496,2172z"/>
	<path d="M12266,2049c-278-41-540-199-696-421c-138-196-170-401-170-1083c0-672,30-870,160-1068c55-84,159-191,246-253
		s236-130,351-161c86-23,118-26,258-26c175-1,242,10,382,61c221,81,400,242,512,462c49,95,95,225,107,300l7,40h-110h-110l-11-51
		c-52-222-218-437-414-533c-115-57-185-76-310-83c-355-21-681,189-782,502c-51,161-74,603-57,1100c10,287,24,415,57,520
		c65,201,234,373,444,451c301,113,646,39,848-180c93-101,190-287,209-403l6-33h115h115l-7,40c-10,65-63,219-99,290
		c-98,194-243,342-424,433C12722,2040,12469,2079,12266,2049z"/>
	<path d="M14866,2050c-331-52-616-249-746-515c-95-195-110-300-117-825c-7-579,10-849,68-1038c89-288,349-519,687-609
		c84-23,118-26,252-26c108,0,176,4,226,16c338,77,607,293,711,569c68,180,83,353,83,965c0,362-3,499-15,586c-38,289-136,485-320,640
		c-129,109-289,186-460,223C15149,2055,14946,2062,14866,2050z M15268,1822c273-93,450-284,502-542c32-157,40-303,40-751
		c0-454-8-590-45-735c-56-220-188-384-389-483c-127-63-234-84-391-78c-215,8-364,69-514,213c-140,133-195,249-228,487
		c-23,160-26,973-5,1162c18,156,51,283,97,376c52,104,189,239,300,296c150,76,224,93,405,89C15162,1854,15184,1850,15268,1822z"/>
	<path d="M5160,546V-940h598c351,0,632,4,682,10c356,44,592,228,680,530c34,115,39,345,11,463c-53,224-197,400-398,489
		c-40,17-73,34-73,37c1,3,35,22,78,41c62,28,94,51,163,120c70,70,94,101,127,170c62,129,76,194,76,345c0,104-5,146-23,210
		c-74,263-266,443-557,522l-99,27l-632,4l-633,3V546z M6465,1806c161-47,288-142,352-262c49-92,67-172,66-299c0-92-5-123-27-189
		c-61-179-178-287-376-347c-73-22-89-23-587-27l-513-3v576v576l513-4C6344,1824,6412,1822,6465,1806z M6420,466
		c320-58,510-280,510-596c0-307-182-529-483-591c-83-17-140-19-579-19h-488v610v610h483C6224,479,6364,476,6420,466z"/>
	<path d="M7960,545V-940h588c634,0,706,5,849,54c217,74,364,199,459,391c70,143,87,221,87,410s-17,267-87,410
		c-95,191-242,317-459,391c-139,48-223,54-739,54h-478v630v630h-110h-110V545z M9275,546c230-67,372-211,432-436c23-90,23-300,0-390
		c-60-225-202-369-432-436c-53-16-121-18-577-21l-518-4v656v656l518-4C9154,564,9222,562,9275,546z"/>
	<path d="M10380,545V-940h110h110V545v1485h-110h-110V545z"/>
	<path d="M16420,1930v-100h440h440V445V-940h110h110V445v1385h445h445v100v100h-995h-995V1930z"/>
</g>
</svg>
